<?xml version="1.0" standalone="no"?>
<!DOCTYPE svg PUBLIC "-//W3C//DTD SVG 20010904//EN"
 "http://www.w3.org/TR/2001/REC-SVG-20010904/DTD/svg10.dtd">
<svg version="1.0" xmlns="http://www.w3.org/2000/svg"
 viewBox="58 385 970 283"
 preserveAspectRatio="xMidYMid meet">

<g transform="translate(0.000000,1080.000000) scale(0.100000,-0.100000)"
fill="#1A1A1A" stroke="none">
<path d="M4103 6846 c-128 -31 -255 -127 -308 -233 -27 -52 -30 -68 -29 -148
0 -99 17 -147 74 -217 42 -50 149 -120 243 -157 118 -47 198 -90 229 -123 38
-41 40 -113 3 -157 -77 -90 -212 -44 -233 80 l-8 44 -167 3 -167 2 0 -47 c0
-68 22 -153 53 -205 75 -128 235 -207 422 -207 300 -1 485 179 462 450 -13
151 -81 221 -344 350 -201 99 -233 125 -233 189 0 50 32 88 84 100 60 13 105
-6 128 -55 11 -22 23 -47 27 -55 7 -12 38 -16 165 -18 138 -2 157 -1 163 14 9
24 -12 123 -37 177 -78 166 -319 263 -527 213z"/>
<path d="M9385 6845 c-211 -46 -377 -173 -470 -360 -64 -128 -79 -195 -79
-345 1 -137 16 -201 75 -305 151 -267 518 -416 815 -329 122 35 196 77 283
159 157 149 227 323 218 540 -7 174 -61 304 -179 430 -167 178 -429 262 -663
210z m285 -309 c205 -107 280 -360 170 -575 -27 -54 -101 -125 -159 -153 -67
-33 -196 -37 -272 -9 -152 57 -247 216 -237 397 4 70 10 94 41 158 44 88 112
155 190 186 67 26 212 24 267 -4z"/>
<path d="M630 6169 l0 -660 334 3 333 3 87 44 c131 66 192 147 216 282 13 73
2 166 -25 221 -24 47 -83 106 -130 130 -22 11 -42 22 -44 24 -3 2 15 21 39 41
99 85 130 244 71 368 -28 61 -93 130 -148 158 -77 40 -141 47 -442 47 l-291 0
0 -661z m547 351 c43 -27 55 -88 28 -140 -20 -38 -68 -52 -170 -48 l-80 3 -3
89 c-2 49 0 96 3 104 4 12 23 14 103 10 56 -3 106 -10 119 -18z m12 -481 c67
-14 91 -44 91 -111 0 -43 -5 -55 -33 -83 -39 -39 -81 -48 -207 -43 l-85 3 -3
109 c-1 61 0 116 2 123 7 16 162 18 235 2z"/>
<path d="M1770 6170 l0 -660 365 0 365 0 0 145 0 145 -197 2 -198 3 -3 513 -2
512 -165 0 -165 0 0 -660z"/>
<path d="M2590 6388 c0 -453 5 -527 40 -621 42 -109 148 -208 277 -257 71 -27
222 -37 308 -21 176 33 313 150 368 314 20 59 21 86 25 545 l3 482 -170 0
-170 0 -3 -467 c-3 -460 -3 -469 -25 -509 -27 -50 -72 -74 -140 -74 -67 0
-113 26 -143 80 l-25 45 -3 463 -3 462 -169 0 -170 0 0 -442z"/>
<path d="M4810 6170 l0 -660 170 0 170 0 0 265 0 265 215 0 215 0 0 -265 0
-265 170 0 170 0 0 660 0 660 -170 0 -170 0 0 -245 0 -245 -215 0 -215 0 0
245 0 245 -170 0 -170 0 0 -660z"/>
<path d="M6648 6180 c-2 -358 -1 -655 0 -660 2 -6 66 -10 163 -10 l159 0 0
205 0 205 113 0 c136 1 245 19 318 54 152 72 239 217 239 400 0 190 -83 337
-226 403 -99 45 -167 53 -476 53 l-288 0 -2 -650z m545 346 c65 -15 93 -36
113 -83 33 -77 6 -163 -61 -197 -31 -16 -64 -21 -157 -24 l-118 -4 0 161 0
161 83 0 c45 0 108 -6 140 -14z"/>
<path d="M7750 6170 l0 -660 160 0 160 0 0 211 c0 133 4 208 10 204 5 -3 66
-85 135 -183 69 -97 135 -190 148 -205 l22 -28 189 3 189 3 -172 215 c-94 118
-171 218 -171 222 0 4 18 12 39 18 64 17 161 89 202 150 47 69 70 136 76 225
7 90 -9 167 -53 254 -60 121 -171 197 -321 220 -39 6 -194 11 -342 11 l-271 0
0 -660z m520 359 c167 -36 201 -261 50 -336 -37 -19 -60 -23 -147 -23 l-103 0
0 178 c0 98 3 182 7 185 10 11 137 8 193 -4z"/>
<path d="M2737 4896 c-66 -18 -151 -79 -187 -134 -90 -136 -82 -353 17 -463
90 -100 285 -129 416 -62 38 19 107 82 107 98 0 7 -19 27 -42 44 l-42 31 -37
-37 c-44 -44 -87 -61 -149 -61 -82 0 -149 40 -187 112 -23 41 -23 177 -1 227
22 50 75 107 116 124 76 32 195 11 229 -41 8 -13 19 -24 24 -24 17 0 89 52 89
64 0 20 -83 94 -124 111 -54 23 -169 28 -229 11z"/>
<path d="M1466 4892 c-11 -19 -286 -666 -286 -674 0 -5 27 -8 61 -6 l60 3 30
72 c23 55 36 73 52 75 12 2 81 2 153 0 l132 -3 30 -72 30 -72 62 -3 c56 -3 62
-1 57 15 -3 10 -49 124 -102 253 -54 129 -114 276 -134 325 l-37 90 -51 3
c-28 2 -54 -1 -57 -6z m107 -285 c26 -68 47 -126 47 -130 0 -4 -47 -7 -105 -7
-58 0 -105 1 -105 3 0 5 77 200 91 230 6 15 15 27 18 27 3 0 27 -55 54 -123z"/>
<path d="M3876 4693 c-49 -115 -108 -253 -131 -308 -24 -55 -50 -117 -59 -137
l-16 -38 63 0 64 0 31 73 30 72 155 3 155 2 27 -75 28 -75 63 0 c35 0 64 2 64
5 0 2 -29 73 -64 157 -35 84 -98 237 -141 341 l-77 187 -52 0 -51 0 -89 -207z
m193 -87 c28 -71 51 -131 51 -133 0 -1 -47 -3 -105 -3 -58 0 -105 3 -105 8 0
10 103 263 106 259 1 -1 26 -60 53 -131z"/>
<path d="M5010 4555 l0 -347 178 4 c170 3 179 5 240 32 110 51 180 157 190
287 12 165 -67 289 -215 339 -56 19 -97 24 -230 28 l-163 5 0 -348z m342 213
c53 -16 113 -75 127 -125 20 -72 14 -155 -17 -214 -22 -43 -38 -59 -81 -81
-48 -25 -63 -28 -152 -28 l-99 0 0 228 c0 126 3 232 8 236 10 11 162 0 214
-16z"/>
<path d="M6327 4893 c-4 -3 -7 -159 -7 -345 l0 -338 224 0 c224 0 224 0 230
23 3 12 6 34 6 50 l0 27 -165 0 -165 0 0 95 0 95 150 0 150 0 0 55 0 55 -150
0 -150 0 0 90 0 90 160 0 160 0 0 55 0 55 -218 0 c-120 0 -222 -3 -225 -7z"/>
<path d="M7476 4718 c-3 -101 -9 -256 -13 -345 l-6 -163 55 0 55 0 7 61 c3 34
6 103 7 153 1 50 4 116 8 146 l7 55 30 -65 c17 -36 61 -129 99 -208 l69 -143
50 3 50 3 95 203 c52 111 98 202 103 202 4 0 8 -38 8 -83 0 -46 3 -139 7 -205
l6 -122 60 0 60 0 -7 118 c-3 64 -9 219 -12 345 l-7 227 -54 0 -55 0 -61 -132
c-34 -73 -91 -193 -127 -266 l-65 -134 -126 264 -125 263 -56 3 -55 3 -7 -183z"/>
<path d="M8873 4888 c2 -7 57 -94 121 -193 l116 -179 0 -153 0 -153 65 0 65 0
0 157 0 156 115 179 c63 98 115 183 115 189 0 6 -25 9 -61 7 l-62 -3 -74 -120
c-41 -66 -80 -125 -86 -132 -9 -10 -31 18 -97 122 l-85 135 -69 0 c-50 0 -67
-3 -63 -12z"/>
</g>
</svg>
